<?xml version="1.0" encoding="UTF-8"?>
<!--Generator: Apple Native CoreSVG 175.5-->
<!DOCTYPE svg
PUBLIC "-//W3C//DTD SVG 1.1//EN"
       "http://www.w3.org/Graphics/SVG/1.1/DTD/svg11.dtd">
<svg version="1.1" xmlns="http://www.w3.org/2000/svg" xmlns:xlink="http://www.w3.org/1999/xlink" width="3300" height="2200">
 <!--glyph: "uni1004E3.medium", point size: 100.0, font version: "18.0d10e1", template writer version: "90"-->
 <g id="Notes">
  <rect height="2200" id="artboard" style="fill:white;opacity:1" width="3300" x="0" y="0"/>
  <line style="fill:none;stroke:black;opacity:1;stroke-width:0.5;" x1="263" x2="3036" y1="292" y2="292"/>
  <text style="stroke:none;fill:black;font-family:sans-serif;font-size:13;font-weight:bold;" transform="matrix(1 0 0 1 263 322)">Weight/Scale Variations</text>
  <text style="stroke:none;fill:black;font-family:sans-serif;font-size:13;text-anchor:middle;" transform="matrix(1 0 0 1 559.711 322)">Ultralight</text>
  <text style="stroke:none;fill:black;font-family:sans-serif;font-size:13;text-anchor:middle;" transform="matrix(1 0 0 1 856.422 322)">Thin</text>
  <text style="stroke:none;fill:black;font-family:sans-serif;font-size:13;text-anchor:middle;" transform="matrix(1 0 0 1 1153.13 322)">Light</text>
  <text style="stroke:none;fill:black;font-family:sans-serif;font-size:13;text-anchor:middle;" transform="matrix(1 0 0 1 1449.84 322)">Regular</text>
  <text style="stroke:none;fill:black;font-family:sans-serif;font-size:13;text-anchor:middle;" transform="matrix(1 0 0 1 1746.56 322)">Medium</text>
  <text style="stroke:none;fill:black;font-family:sans-serif;font-size:13;text-anchor:middle;" transform="matrix(1 0 0 1 2043.27 322)">Semibold</text>
  <text style="stroke:none;fill:black;font-family:sans-serif;font-size:13;text-anchor:middle;" transform="matrix(1 0 0 1 2339.98 322)">Bold</text>
  <text style="stroke:none;fill:black;font-family:sans-serif;font-size:13;text-anchor:middle;" transform="matrix(1 0 0 1 2636.69 322)">Heavy</text>
  <text style="stroke:none;fill:black;font-family:sans-serif;font-size:13;text-anchor:middle;" transform="matrix(1 0 0 1 2933.4 322)">Black</text>
  <line style="fill:none;stroke:black;opacity:1;stroke-width:0.5;" x1="263" x2="3036" y1="1903" y2="1903"/>
  <g transform="matrix(1 0 0 1 263 1933)">
   <path d="M9.24805 0.830078C13.5547 0.830078 17.1387-2.74414 17.1387-7.05078C17.1387-11.3574 13.5449-14.9316 9.23828-14.9316C4.94141-14.9316 1.36719-11.3574 1.36719-7.05078C1.36719-2.74414 4.95117 0.830078 9.24805 0.830078ZM9.24805-0.654297C5.70312-0.654297 2.87109-3.49609 2.87109-7.05078C2.87109-10.6055 5.69336-13.4473 9.23828-13.4473C12.793-13.4473 15.6445-10.6055 15.6445-7.05078C15.6445-3.49609 12.8027-0.654297 9.24805-0.654297ZM5.6543-7.05078C5.6543-6.62109 5.95703-6.32812 6.40625-6.32812L8.50586-6.32812L8.50586-4.20898C8.50586-3.76953 8.79883-3.4668 9.22852-3.4668C9.67773-3.4668 9.9707-3.76953 9.9707-4.20898L9.9707-6.32812L12.0898-6.32812C12.5293-6.32812 12.832-6.62109 12.832-7.05078C12.832-7.49023 12.5293-7.79297 12.0898-7.79297L9.9707-7.79297L9.9707-9.90234C9.9707-10.3516 9.67773-10.6543 9.22852-10.6543C8.79883-10.6543 8.50586-10.3516 8.50586-9.90234L8.50586-7.79297L6.40625-7.79297C5.95703-7.79297 5.6543-7.49023 5.6543-7.05078Z"/>
  </g>
  <g transform="matrix(1 0 0 1 281.867 1933)">
   <path d="M11.709 2.91016C17.1582 2.91016 21.6699-1.61133 21.6699-7.05078C21.6699-12.5 17.1484-17.0117 11.6992-17.0117C6.25977-17.0117 1.74805-12.5 1.74805-7.05078C1.74805-1.61133 6.26953 2.91016 11.709 2.91016ZM11.709 1.25C7.09961 1.25 3.41797-2.44141 3.41797-7.05078C3.41797-11.6602 7.08984-15.3516 11.6992-15.3516C16.3086-15.3516 20.0098-11.6602 20.0098-7.05078C20.0098-2.44141 16.3184 1.25 11.709 1.25ZM7.17773-7.05078C7.17773-6.57227 7.50977-6.25 8.00781-6.25L10.8789-6.25L10.8789-3.36914C10.8789-2.88086 11.2109-2.53906 11.6895-2.53906C12.1777-2.53906 12.5195-2.87109 12.5195-3.36914L12.5195-6.25L15.4004-6.25C15.8887-6.25 16.2305-6.57227 16.2305-7.05078C16.2305-7.53906 15.8887-7.88086 15.4004-7.88086L12.5195-7.88086L12.5195-10.752C12.5195-11.25 12.1777-11.5918 11.6895-11.5918C11.2109-11.5918 10.8789-11.25 10.8789-10.752L10.8789-7.88086L8.00781-7.88086C7.50977-7.88086 7.17773-7.53906 7.17773-7.05078Z"/>
  </g>
  <g transform="matrix(1 0 0 1 305.646 1933)">
   <path d="M14.9707 5.66406C21.9336 5.66406 27.6953-0.0976562 27.6953-7.05078C27.6953-14.0137 21.9238-19.7754 14.9609-19.7754C8.00781-19.7754 2.25586-14.0137 2.25586-7.05078C2.25586-0.0976562 8.01758 5.66406 14.9707 5.66406ZM14.9707 3.84766C8.93555 3.84766 4.08203-1.01562 4.08203-7.05078C4.08203-13.0957 8.92578-17.9492 14.9609-17.9492C21.0059-17.9492 25.8691-13.0957 25.8691-7.05078C25.8691-1.01562 21.0156 3.84766 14.9707 3.84766ZM9.19922-7.05078C9.19922-6.5332 9.57031-6.17188 10.1172-6.17188L14.0625-6.17188L14.0625-2.2168C14.0625-1.67969 14.4336-1.29883 14.9512-1.29883C15.4883-1.29883 15.8594-1.66992 15.8594-2.2168L15.8594-6.17188L19.8145-6.17188C20.3516-6.17188 20.7324-6.5332 20.7324-7.05078C20.7324-7.59766 20.3613-7.96875 19.8145-7.96875L15.8594-7.96875L15.8594-11.9141C15.8594-12.4609 15.4883-12.8418 14.9512-12.8418C14.4336-12.8418 14.0625-12.4609 14.0625-11.9141L14.0625-7.96875L10.1172-7.96875C9.57031-7.96875 9.19922-7.59766 9.19922-7.05078Z"/>
  </g>
  <text style="stroke:none;fill:black;font-family:sans-serif;font-size:13;font-weight:bold;" transform="matrix(1 0 0 1 263 1953)">Design Variations</text>
  <text style="stroke:none;fill:black;font-family:sans-serif;font-size:13;" transform="matrix(1 0 0 1 263 1971)">Symbols are supported in up to nine weights and three scales.</text>
  <text style="stroke:none;fill:black;font-family:sans-serif;font-size:13;" transform="matrix(1 0 0 1 263 1989)">For optimal layout with text and other symbols, vertically align</text>
  <text style="stroke:none;fill:black;font-family:sans-serif;font-size:13;" transform="matrix(1 0 0 1 263 2007)">symbols with the adjacent text.</text>
  <line style="fill:none;stroke:#00AEEF;stroke-width:0.5;opacity:1.0;" x1="776" x2="776" y1="1919" y2="1933"/>
  <g transform="matrix(1 0 0 1 776 1933)">
   <path d="M3.31055 0.15625C3.82812 0.15625 4.08203-0.0390625 4.26758-0.585938L5.52734-4.0332L11.2891-4.0332L12.5488-0.585938C12.7344-0.0390625 12.9883 0.15625 13.4961 0.15625C14.0137 0.15625 14.3457-0.15625 14.3457-0.644531C14.3457-0.810547 14.3164-0.966797 14.2383-1.17188L9.6582-13.3691C9.43359-13.9648 9.0332-14.2676 8.4082-14.2676C7.80273-14.2676 7.39258-13.9746 7.17773-13.3789L2.59766-1.16211C2.51953-0.957031 2.49023-0.800781 2.49023-0.634766C2.49023-0.146484 2.80273 0.15625 3.31055 0.15625ZM6.00586-5.51758L8.37891-12.0898L8.42773-12.0898L10.8008-5.51758Z"/>
  </g>
  <line style="fill:none;stroke:#00AEEF;stroke-width:0.5;opacity:1.0;" x1="793.197" x2="793.197" y1="1919" y2="1933"/>
  <text style="stroke:none;fill:black;font-family:sans-serif;font-size:13;font-weight:bold;" transform="matrix(1 0 0 1 776 1953)">Margins</text>
  <text style="stroke:none;fill:black;font-family:sans-serif;font-size:13;" transform="matrix(1 0 0 1 776 1971)">Leading and trailing margins on the left and right side of each symbol</text>
  <text style="stroke:none;fill:black;font-family:sans-serif;font-size:13;" transform="matrix(1 0 0 1 776 1989)">can be adjusted by modifying the x-location of the margin guidelines.</text>
  <text style="stroke:none;fill:black;font-family:sans-serif;font-size:13;" transform="matrix(1 0 0 1 776 2007)">Modifications are automatically applied proportionally to all</text>
  <text style="stroke:none;fill:black;font-family:sans-serif;font-size:13;" transform="matrix(1 0 0 1 776 2025)">scales and weights.</text>
  <g transform="matrix(1 0 0 1 1289 1933)">
   <path d="M2.8418 1.86523L4.54102 3.57422C5.40039 4.44336 6.38672 4.38477 7.31445 3.35938L18.0078-8.42773L17.041-9.4043L6.42578 2.27539C6.07422 2.67578 5.74219 2.77344 5.27344 2.30469L4.10156 1.14258C3.63281 0.683594 3.74023 0.341797 4.14062-0.0195312L15.6152-10.8203L14.6387-11.7871L3.04688-0.898438C2.06055 0.0195312 1.98242 0.996094 2.8418 1.86523ZM9.25781-16.3281C8.83789-15.918 8.80859-15.3418 9.04297-14.9512C9.27734-14.5898 9.73633-14.3555 10.3809-14.5215C11.8457-14.8633 13.3691-14.9219 14.7949-13.9844L14.209-12.5293C13.8672-11.6992 14.043-11.1133 14.5801-10.5664L16.875-8.25195C17.3633-7.76367 17.7734-7.74414 18.3398-7.8418L19.4043-8.03711L20.0684-7.36328L20.0293-6.80664C19.9902-6.30859 20.1172-5.92773 20.6055-5.44922L21.3672-4.70703C21.8457-4.22852 22.4609-4.19922 22.9297-4.66797L25.8398-7.58789C26.3086-8.05664 26.2891-8.65234 25.8105-9.13086L25.0391-9.89258C24.5605-10.3711 24.1895-10.5273 23.7109-10.4883L23.1348-10.4395L22.4902-11.0742L22.7344-12.1973C22.8613-12.7637 22.7051-13.2031 22.1191-13.7891L19.9219-15.9766C16.582-19.2969 12.1484-19.2188 9.25781-16.3281ZM10.752-15.957C13.1836-17.7344 16.4746-17.4316 18.7012-15.2051L21.1328-12.793C21.3672-12.5586 21.4062-12.373 21.3379-12.0312L21.0156-10.5469L22.5195-9.0625L23.5059-9.12109C23.7598-9.13086 23.8379-9.11133 24.0332-8.91602L24.6094-8.33984L22.168-5.89844L21.5918-6.47461C21.3965-6.66992 21.3672-6.74805 21.377-7.01172L21.4453-7.98828L19.9512-9.47266L18.4277-9.21875C18.1055-9.15039 17.959-9.17969 17.7148-9.41406L15.7129-11.416C15.459-11.6504 15.4297-11.8164 15.5859-12.1875L16.4648-14.2773C14.9023-15.7324 12.8711-16.3574 10.8398-15.7617C10.6836-15.7227 10.625-15.8496 10.752-15.957Z"/>
  </g>
  <text style="stroke:none;fill:black;font-family:sans-serif;font-size:13;font-weight:bold;" transform="matrix(1 0 0 1 1289 1953)">Exporting</text>
  <text style="stroke:none;fill:black;font-family:sans-serif;font-size:13;" transform="matrix(1 0 0 1 1289 1971)">Symbols should be outlined when exporting to ensure the</text>
  <text style="stroke:none;fill:black;font-family:sans-serif;font-size:13;" transform="matrix(1 0 0 1 1289 1989)">design is preserved when submitting to Xcode.</text>
  <text id="template-version" style="stroke:none;fill:black;font-family:sans-serif;font-size:13;text-anchor:end;" transform="matrix(1 0 0 1 3036 1933)">Template v.4.0</text>
  <text style="stroke:none;fill:black;font-family:sans-serif;font-size:13;text-anchor:end;" transform="matrix(1 0 0 1 3036 1951)">Requires Xcode 14 or greater</text>
  <text id="descriptive-name" style="stroke:none;fill:black;font-family:sans-serif;font-size:13;text-anchor:end;" transform="matrix(1 0 0 1 3036 1969)">Generated from person.circle</text>
  <text style="stroke:none;fill:black;font-family:sans-serif;font-size:13;text-anchor:end;" transform="matrix(1 0 0 1 3036 1987)">Typeset at 100 points</text>
  <text style="stroke:none;fill:black;font-family:sans-serif;font-size:13;" transform="matrix(1 0 0 1 263 726)">Small</text>
  <text style="stroke:none;fill:black;font-family:sans-serif;font-size:13;" transform="matrix(1 0 0 1 263 1156)">Medium</text>
  <text style="stroke:none;fill:black;font-family:sans-serif;font-size:13;" transform="matrix(1 0 0 1 263 1586)">Large</text>
 </g>
 <g id="Guides">
  <g id="H-reference" style="fill:#27AAE1;stroke:none;" transform="matrix(1 0 0 1 339 696)">
   <path d="M0.993654 0L3.63775 0L29.3281-67.1323L30.0303-67.1323L30.0303-70.459L28.1226-70.459ZM11.6885-24.4799L46.9815-24.4799L46.2315-26.7285L12.4385-26.7285ZM55.1196 0L57.7637 0L30.6382-70.459L29.4326-70.459L29.4326-67.1323Z"/>
  </g>
  <line id="Baseline-S" style="fill:none;stroke:#27AAE1;opacity:1;stroke-width:0.5;" x1="263" x2="3036" y1="696" y2="696"/>
  <line id="Capline-S" style="fill:none;stroke:#27AAE1;opacity:1;stroke-width:0.5;" x1="263" x2="3036" y1="625.541" y2="625.541"/>
  <g id="H-reference" style="fill:#27AAE1;stroke:none;" transform="matrix(1 0 0 1 339 1126)">
   <path d="M0.993654 0L3.63775 0L29.3281-67.1323L30.0303-67.1323L30.0303-70.459L28.1226-70.459ZM11.6885-24.4799L46.9815-24.4799L46.2315-26.7285L12.4385-26.7285ZM55.1196 0L57.7637 0L30.6382-70.459L29.4326-70.459L29.4326-67.1323Z"/>
  </g>
  <line id="Baseline-M" style="fill:none;stroke:#27AAE1;opacity:1;stroke-width:0.5;" x1="263" x2="3036" y1="1126" y2="1126"/>
  <line id="Capline-M" style="fill:none;stroke:#27AAE1;opacity:1;stroke-width:0.5;" x1="263" x2="3036" y1="1055.54" y2="1055.54"/>
  <g id="H-reference" style="fill:#27AAE1;stroke:none;" transform="matrix(1 0 0 1 339 1556)">
   <path d="M0.993654 0L3.63775 0L29.3281-67.1323L30.0303-67.1323L30.0303-70.459L28.1226-70.459ZM11.6885-24.4799L46.9815-24.4799L46.2315-26.7285L12.4385-26.7285ZM55.1196 0L57.7637 0L30.6382-70.459L29.4326-70.459L29.4326-67.1323Z"/>
  </g>
  <line id="Baseline-L" style="fill:none;stroke:#27AAE1;opacity:1;stroke-width:0.5;" x1="263" x2="3036" y1="1556" y2="1556"/>
  <line id="Capline-L" style="fill:none;stroke:#27AAE1;opacity:1;stroke-width:0.5;" x1="263" x2="3036" y1="1485.54" y2="1485.54"/>
  <line id="left-margin-Regular-M" style="fill:none;stroke:#00AEEF;stroke-width:0.5;opacity:1.0;" x1="1391.32" x2="1391.32" y1="1030.79" y2="1150.12"/>
  <line id="right-margin-Regular-M" style="fill:none;stroke:#00AEEF;stroke-width:0.5;opacity:1.0;" x1="1508.37" x2="1508.37" y1="1030.79" y2="1150.12"/>
 </g>
 <g id="Symbols">
  <g id="Black-L" transform="matrix(1 0 0 1 2854.19 1556)">
   <path d="M79.1958 32.7257C116.56 32.7257 147.154 2.15259 147.154-35.2113C147.154-72.5752 116.539-103.148 79.175-103.148C41.8307-103.148 11.2588-72.5752 11.2588-35.2113C11.2588 2.15259 41.8515 32.7257 79.1958 32.7257ZM79.1958 12.5782C52.765 12.5782 31.4468-8.75969 31.4468-35.2113C31.4468-61.6629 52.7442-83.0007 79.175-83.0007C105.627-83.0007 126.985-61.6629 126.985-35.2113C126.985-8.75969 105.647 12.5782 79.1958 12.5782ZM54.3584-5.16484L104.011-5.16484C107.543-5.16484 109.363-7.77666 109.363-10.8954C109.363-17.4426 100.255-33.8532 79.175-33.8532C58.1156-33.8532 49.0079-17.4426 49.0079-10.8954C49.0079-7.77666 50.828-5.16484 54.3584-5.16484ZM79.175-38.1812C87.654-38.1604 94.5389-45.3502 94.5389-54.9551C94.5389-63.9154 87.654-71.3269 79.175-71.3269C70.7168-71.3269 63.8318-63.9154 63.8318-54.9551C63.8318-45.3502 70.7168-38.202 79.175-38.1812Z"/>
  </g>
  <g id="Heavy-L" transform="matrix(1 0 0 1 2558.42 1556)">
   <path d="M78.2532 31.7694C115.056 31.7694 145.278 1.57794 145.278-35.2251C145.278-72.0281 115.026-102.22 78.2231-102.22C41.4446-102.22 11.2588-72.0281 11.2588-35.2251C11.2588 1.57794 41.4748 31.7694 78.2532 31.7694ZM78.2532 14.0275C51.0062 14.0275 29.0554-7.9479 29.0554-35.2251C29.0554-62.5023 50.9761-84.4777 78.2231-84.4777C105.5-84.4777 127.506-62.5023 127.506-35.2251C127.506-7.9479 105.53 14.0275 78.2532 14.0275ZM52.4365-4.71158L104.034-4.71158C107.298-4.71158 108.954-7.08732 108.954-9.9926C108.954-16.622 99.5431-33.4148 78.2231-33.4148C56.9332-33.4148 47.5218-16.622 47.5218-9.9926C47.5218-7.08732 49.1786-4.71158 52.4365-4.71158ZM78.2231-37.9313C86.8173-37.9011 93.7761-45.1974 93.7761-54.9175C93.7761-63.9886 86.8173-71.5015 78.2231-71.5015C69.659-71.5015 62.7002-63.9886 62.7002-54.9175C62.7002-45.1974 69.659-37.9615 78.2231-37.9313Z"/>
  </g>
  <g id="Bold-L" transform="matrix(1 0 0 1 2262.89 1556)">
   <path d="M77.0704 30.5711C113.182 30.5711 142.92 0.870872 142.92-35.2405C142.92-71.3519 113.144-101.052 77.0324-101.052C40.9458-101.052 11.2588-71.3519 11.2588-35.2405C11.2588 0.870872 40.9838 30.5711 77.0704 30.5711ZM77.0704 15.8255C48.8167 15.8255 26.0672-6.94878 26.0672-35.2405C26.0672-63.5322 48.7787-86.3065 77.0324-86.3065C105.324-86.3065 128.136-63.5322 128.136-35.2405C128.136-6.94878 105.362 15.8255 77.0704 15.8255ZM50.0993-4.18044L103.99-4.18044C106.909-4.18044 108.351-6.24928 108.351-8.87831C108.351-15.6077 98.6073-32.8842 77.0324-32.8842C55.4955-32.8842 45.7523-15.6077 45.7523-8.87831C45.7523-6.24928 47.1943-4.18044 50.0993-4.18044ZM77.0324-37.609C85.7501-37.571 92.7863-44.9756 92.7863-54.8192C92.7863-64.0062 85.7501-71.6273 77.0324-71.6273C68.3527-71.6273 61.3165-64.0062 61.3165-54.8192C61.3165-44.9756 68.3527-37.647 77.0324-37.609Z"/>
  </g>
  <g id="Semibold-L" transform="matrix(1 0 0 1 1966.99 1556)">
   <path d="M76.2549 29.745C111.889 29.745 141.294 0.383422 141.294-35.2511C141.294-70.8857 111.846-100.247 76.2116-100.247C40.6019-100.247 11.2588-70.8857 11.2588-35.2511C11.2588 0.383422 40.6453 29.745 76.2549 29.745ZM76.2549 17.065C47.3072 17.065 24.0071-6.26 24.0071-35.2511C24.0071-64.2423 47.2638-87.5672 76.2116-87.5672C105.203-87.5672 128.571-64.2423 128.571-35.2511C128.571-6.26 105.246 17.065 76.2549 17.065ZM48.488-3.81428L103.96-3.81428C106.64-3.81428 107.934-5.67153 107.934-8.11012C107.934-14.9084 97.9622-32.5184 76.2116-32.5184C54.5043-32.5184 44.5324-14.9084 44.5324-8.11012C44.5324-5.67153 45.8263-3.81428 48.488-3.81428ZM76.2116-37.3868C85.0145-37.3434 92.1039-44.8227 92.1039-54.7514C92.1039-64.0184 85.0145-71.714 76.2116-71.714C67.452-71.714 60.3626-64.0184 60.3626-54.7514C60.3626-44.8227 67.452-37.4302 76.2116-37.3868Z"/>
  </g>
  <g id="Medium-L" transform="matrix(1 0 0 1 1670.9 1556)">
   <path d="M75.6366 29.1187C110.91 29.1187 140.062 0.0138167 140.062-35.2592C140.062-70.5322 110.862-99.637 75.5892-99.637C40.3412-99.637 11.2588-70.5322 11.2588-35.2592C11.2588 0.0138167 40.3886 29.1187 75.6366 29.1187ZM75.6366 18.0048C46.1626 18.0048 22.4451-5.73774 22.4451-35.2592C22.4451-64.7806 46.1152-88.5232 75.5892-88.5232C105.111-88.5232 128.901-64.7806 128.901-35.2592C128.901-5.73774 105.158 18.0048 75.6366 18.0048ZM47.2662-3.53664L103.937-3.53664C106.437-3.53664 107.618-5.23347 107.618-7.52765C107.618-14.3782 97.473-32.2411 75.5892-32.2411C53.7528-32.2411 43.6074-14.3782 43.6074-7.52765C43.6074-5.23347 44.7891-3.53664 47.2662-3.53664ZM75.5892-37.2183C84.4567-37.1709 91.5865-44.7067 91.5865-54.7001C91.5865-64.0276 84.4567-71.7797 75.5892-71.7797C66.7691-71.7797 59.6394-64.0276 59.6394-54.7001C59.6394-44.7067 66.7691-37.2657 75.5892-37.2183Z"/>
  </g>
  <g id="Regular-L" transform="matrix(1 0 0 1 1374.99 1556)">
   <path d="M74.8301 28.3017C109.632 28.3017 138.454-0.468277 138.454-35.2697C138.454-70.0711 109.579-98.8411 74.7774-98.8411C40.0011-98.8411 11.2588-70.0711 11.2588-35.2697C11.2588-0.468277 40.0538 28.3017 74.8301 28.3017ZM74.8301 19.2307C44.6697 19.2307 20.4076-5.05652 20.4076-35.2697C20.4076-65.4829 44.617-89.7701 74.7774-89.7701C104.991-89.7701 129.331-65.4829 129.331-35.2697C129.331-5.05652 105.043 19.2307 74.8301 19.2307ZM45.6726-3.1745L103.907-3.1745C106.171-3.1745 107.207-4.66207 107.207-6.7679C107.207-13.6866 96.835-31.8793 74.7774-31.8793C52.7725-31.8793 42.4009-13.6866 42.4009-6.7679C42.4009-4.66207 43.4362-3.1745 45.6726-3.1745ZM74.7774-36.9985C83.7291-36.9458 90.9116-44.5555 90.9116-54.6331C90.9116-64.0396 83.7291-71.8655 74.7774-71.8655C65.8784-71.8655 58.6959-64.0396 58.6959-54.6331C58.6959-44.5555 65.8784-37.0513 74.7774-36.9985Z"/>
  </g>
  <g id="Light-L" transform="matrix(1 0 0 1 1079.2 1556)">
   <path d="M73.9141 27.3856C108.257 27.3856 136.603-0.926323 136.603-35.2697C136.603-69.6131 108.224-97.925 73.8804-97.925C39.5239-97.925 11.2588-69.6131 11.2588-35.2697C11.2588-0.926323 39.5576 27.3856 73.9141 27.3856ZM73.9141 20.4903C43.0857 20.4903 18.1746-4.40762 18.1746-35.2697C18.1746-66.1318 43.052-91.0297 73.8804-91.0297C104.742-91.0297 129.674-66.1318 129.674-35.2697C129.674-4.40762 104.776 20.4903 73.9141 20.4903ZM44.3367-3.00274L103.411-3.00274C105.351-3.00274 106.157-4.18494 106.157-6.02357C106.157-12.9995 95.8426-31.593 73.8804-31.593C51.9519-31.593 41.6375-12.9995 41.6375-6.02357C41.6375-4.18494 42.4437-3.00274 44.3367-3.00274ZM73.8804-36.6932C82.7939-36.6595 89.9382-44.1928 89.9382-54.2323C89.9382-63.5816 82.7939-71.3693 73.8804-71.3693C65.0005-71.3693 57.8562-63.5816 57.8562-54.2323C57.8562-44.1928 65.0005-36.7268 73.8804-36.6932Z"/>
  </g>
  <g id="Thin-L" transform="matrix(1 0 0 1 783.716 1556)">
   <path d="M72.7024 26.174C106.44 26.174 134.155-1.53213 134.155-35.2697C134.155-69.0073 106.432-96.7134 72.694-96.7134C38.8929-96.7134 11.2588-69.0073 11.2588-35.2697C11.2588-1.53213 38.9013 26.174 72.7024 26.174ZM72.7024 22.1563C40.9906 22.1563 15.2214-3.5494 15.2214-35.2697C15.2214-66.99 40.9821-92.6957 72.694-92.6957C104.414-92.6957 130.128-66.99 130.128-35.2697C130.128-3.5494 104.423 22.1563 72.7024 22.1563ZM42.5697-2.77556L102.755-2.77556C104.265-2.77556 104.769-3.5539 104.769-5.03914C104.769-12.0908 94.53-31.2144 72.694-31.2144C50.8665-31.2144 40.6278-12.0908 40.6278-5.03914C40.6278-3.5539 41.1312-2.77556 42.5697-2.77556ZM72.694-36.2893C81.5571-36.2809 88.6509-43.7132 88.6509-53.7022C88.6509-62.9758 81.5571-70.713 72.694-70.713C63.8394-70.713 56.7456-62.9758 56.7456-53.7022C56.7456-43.7132 63.8394-36.2977 72.694-36.2893Z"/>
  </g>
  <g id="Ultralight-L" transform="matrix(1 0 0 1 487.631 1556)">
   <path d="M72.0819 25.5534C105.509 25.5534 132.9-1.84242 132.9-35.2697C132.9-68.697 105.514-96.0928 72.0864-96.0928C38.5697-96.0928 11.2588-68.697 11.2588-35.2697C11.2588-1.84242 38.5652 25.5534 72.0819 25.5534ZM72.0819 23.0096C39.9175 23.0096 13.7087-3.10983 13.7087-35.2697C13.7087-67.4296 39.922-93.549 72.0864-93.549C104.246-93.549 130.361-67.4296 130.361-35.2697C130.361-3.10983 104.242 23.0096 72.0819 23.0096ZM41.6647-2.6592L102.419-2.6592C103.709-2.6592 104.058-3.23068 104.058-4.53492C104.058-11.6254 93.8577-31.0205 72.0864-31.0205C50.3105-31.0205 40.1107-11.6254 40.1107-4.53492C40.1107-3.23068 40.4589-2.6592 41.6647-2.6592ZM72.0864-36.0824C80.9236-36.0869 87.9915-43.4676 87.9915-53.4307C87.9915-62.6655 80.9236-70.3768 72.0864-70.3768C63.2447-70.3768 56.1767-62.6655 56.1767-53.4307C56.1767-43.4676 63.2447-36.0779 72.0864-36.0824Z"/>
  </g>
  <g id="Black-M" transform="matrix(1 0 0 1 2871.36 1126)">
   <path d="M62.0422 18.116C91.4096 18.116 115.367-5.83621 115.367-35.2035C115.367-64.5709 91.4041-88.5231 62.0367-88.5231C32.6752-88.5231 8.72266-64.5709 8.72266-35.2035C8.72266-5.83621 32.6807 18.116 62.0422 18.116ZM62.0422 0.73415C42.1762 0.73415 26.1158-15.332 26.1158-35.2035C26.1158-55.0751 42.1707-71.1412 62.0367-71.1412C81.9083-71.1412 97.9799-55.0751 97.9799-35.2035C97.9799-15.332 81.9138 0.73415 62.0422 0.73415ZM43.5845-12.3034L80.4948-12.3034C83.4173-12.3034 84.9367-14.4884 84.9367-17.0519C84.9367-22.0615 78.1494-34.5012 62.0367-34.5012C45.9296-34.5012 39.1423-22.0615 39.1423-17.0519C39.1423-14.4884 40.6617-12.3034 43.5845-12.3034ZM62.0367-37.6897C68.5016-37.6842 73.767-43.1527 73.767-50.4898C73.767-57.3287 68.5016-62.9784 62.0367-62.9784C55.5774-62.9784 50.312-57.3287 50.312-50.4898C50.312-43.1527 55.5774-37.6951 62.0367-37.6897Z"/>
  </g>
  <g id="Heavy-M" transform="matrix(1 0 0 1 2575.48 1126)">
   <path d="M61.2053 17.2657C90.0667 17.2657 113.704-6.35571 113.704-35.217C113.704-64.0783 90.0502-87.6997 61.1889-87.6997C32.3418-87.6997 8.72266-64.0783 8.72266-35.217C8.72266-6.35571 32.3582 17.2657 61.2053 17.2657ZM61.2053 2.03478C40.603 2.03478 23.9841-14.5983 23.9841-35.217C23.9841-55.8358 40.5866-72.4688 61.1889-72.4688C81.8077-72.4688 98.4571-55.8358 98.4571-35.217C98.4571-14.5983 81.8241 2.03478 61.2053 2.03478ZM41.8289-11.8762L80.5631-11.8762C83.2535-11.8762 84.6343-13.8586 84.6343-16.238C84.6343-21.3226 77.5448-34.099 61.1889-34.099C44.8494-34.099 37.7599-21.3226 37.7599-16.238C37.7599-13.8586 39.1408-11.8762 41.8289-11.8762ZM61.1889-37.4736C67.7699-37.4572 73.1111-43.0367 73.1111-50.49C73.1111-57.4425 67.7699-63.1948 61.1889-63.1948C54.6244-63.1948 49.2832-57.4425 49.2832-50.49C49.2832-43.0367 54.6244-37.49 61.1889-37.4736Z"/>
  </g>
  <g id="Bold-M" transform="matrix(1 0 0 1 2279.69 1126)">
   <path d="M60.2692 16.3144C88.5644 16.3144 111.844-6.93686 111.844-35.2321C111.844-63.5273 88.5358-86.7786 60.2405-86.7786C31.9688-86.7786 8.72266-63.5273 8.72266-35.2321C8.72266-6.93686 31.9974 16.3144 60.2692 16.3144ZM60.2692 3.48972C38.8432 3.48972 21.5995-13.7775 21.5995-35.2321C21.5995-56.6867 38.8146-73.9539 60.2405-73.9539C81.6951-73.9539 98.991-56.6867 98.991-35.2321C98.991-13.7775 81.7238 3.48972 60.2692 3.48972ZM39.8651-11.3982L80.6394-11.3982C83.0702-11.3982 84.2961-13.154 84.2961-15.3276C84.2961-20.4961 76.8685-33.6492 60.2405-33.6492C43.6412-33.6492 36.2136-20.4961 36.2136-15.3276C36.2136-13.154 37.4395-11.3982 39.8651-11.3982ZM60.2405-37.2319C66.9515-37.2032 72.3773-42.907 72.3773-50.4902C72.3773-57.5698 66.9515-63.437 60.2405-63.437C53.5582-63.437 48.1324-57.5698 48.1324-50.4902C48.1324-42.907 53.5582-37.2605 60.2405-37.2319Z"/>
  </g>
  <g id="Semibold-M" transform="matrix(1 0 0 1 1983.62 1126)">
   <path d="M59.6238 15.6586C87.5288 15.6586 110.562-7.33749 110.562-35.2425C110.562-63.1475 87.4917-86.1436 59.5867-86.1436C31.7117-86.1436 8.72266-63.1475 8.72266-35.2425C8.72266-7.33749 31.7487 15.6586 59.6238 15.6586ZM59.6238 4.49275C37.63 4.49275 19.9555-13.2117 19.9555-35.2425C19.9555-57.2733 37.5929-74.9777 59.5867-74.9777C81.6175-74.9777 99.359-57.2733 99.359-35.2425C99.359-13.2117 81.6546 4.49275 59.6238 4.49275ZM38.5113-11.0687L80.6921-11.0687C82.9438-11.0687 84.063-12.6682 84.063-14.6999C84.063-19.9264 76.4023-33.339 59.5867-33.339C42.8082-33.339 35.1475-19.9264 35.1475-14.6999C35.1475-12.6682 36.2666-11.0687 38.5113-11.0687ZM59.5867-37.0652C66.3872-37.0282 71.8715-42.8176 71.8715-50.4904C71.8715-57.6576 66.3872-63.604 59.5867-63.604C52.8233-63.604 47.339-57.6576 47.339-50.4904C47.339-42.8176 52.8233-37.1023 59.5867-37.0652Z"/>
  </g>
  <g id="Medium-M" transform="matrix(1 0 0 1 1687.4 1126)">
   <path d="M59.1344 15.1614C86.7435 15.1614 109.59-7.64127 109.59-35.2504C109.59-62.8595 86.7001-85.6621 59.091-85.6621C31.5167-85.6621 8.72266-62.8595 8.72266-35.2504C8.72266-7.64127 31.5601 15.1614 59.1344 15.1614ZM59.1344 5.25329C36.7101 5.25329 18.709-12.7826 18.709-35.2504C18.709-57.7181 36.6666-75.754 59.091-75.754C81.5587-75.754 99.6381-57.7181 99.6381-35.2504C99.6381-12.7826 81.6021 5.25329 59.1344 5.25329ZM37.4848-10.8189L80.732-10.8189C82.848-10.8189 83.8862-12.2999 83.8862-14.224C83.8862-19.4943 76.0488-33.1038 59.091-33.1038C42.1766-33.1038 34.3391-19.4943 34.3391-14.224C34.3391-12.2999 35.3773-10.8189 37.4848-10.8189ZM59.091-36.9389C65.9594-36.8954 71.488-42.7498 71.488-50.4905C71.488-57.7241 65.9594-63.7306 59.091-63.7306C52.266-63.7306 46.7374-57.7241 46.7374-50.4905C46.7374-42.7498 52.266-36.9823 59.091-36.9389Z"/>
  </g>
  <g id="Regular-M" transform="matrix(1 0 0 1 1391.32 1126)">
   <path d="M58.4961 14.5128C85.7192 14.5128 108.321-8.0375 108.321-35.2606C108.321-62.4838 85.6675-85.0341 58.4443-85.0341C31.2624-85.0341 8.72266-62.4838 8.72266-35.2606C8.72266-8.0375 31.3141 14.5128 58.4961 14.5128ZM58.4961 6.24529C35.5102 6.24529 17.0831-12.223 17.0831-35.2606C17.0831-58.2983 35.4584-76.7666 58.4443-76.7666C81.482-76.7666 100.002-58.2983 100.002-35.2606C100.002-12.223 81.5337 6.24529 58.4961 6.24529ZM36.1458-10.493L80.7841-10.493C82.7231-10.493 83.6556-11.8195 83.6556-13.6033C83.6556-18.9308 75.5877-32.7971 58.4443-32.7971C41.3528-32.7971 33.2848-18.9308 33.2848-13.6033C33.2848-11.8195 34.2174-10.493 36.1458-10.493ZM58.4443-36.7741C65.4014-36.7223 70.9877-42.6613 70.9877-50.4906C70.9877-57.8109 65.4014-63.8957 58.4443-63.8957C51.5391-63.8957 45.9527-57.8109 45.9527-50.4906C45.9527-42.6613 51.5391-36.8258 58.4443-36.7741Z"/>
  </g>
  <g id="Light-M" transform="matrix(1 0 0 1 1095.44 1126)">
   <path d="M57.6748 13.6915C84.4872 13.6915 106.662-8.44816 106.662-35.2606C106.662-62.0731 84.4526-84.2128 57.6401-84.2128C30.8346-84.2128 8.72266-62.0731 8.72266-35.2606C8.72266-8.44816 30.8693 13.6915 57.6748 13.6915ZM57.6748 7.37462C34.09 7.37462 15.0811-11.6412 15.0811-35.2606C15.0811-58.8801 34.0554-77.8959 57.6401-77.8959C81.2595-77.8959 100.31-58.8801 100.31-35.2606C100.31-11.6412 81.2942 7.37462 57.6748 7.37462ZM34.948-10.339L80.3392-10.339C81.9873-10.339 82.7145-11.3918 82.7145-12.9359C82.7145-18.3148 74.6979-32.5404 57.6401-32.5404C40.617-32.5404 32.6004-18.3148 32.6004-12.9359C32.6004-11.3918 33.3276-10.339 34.948-10.339ZM57.6401-36.5003C64.5629-36.4656 70.115-42.3362 70.115-50.1313C70.115-57.4003 64.5629-63.4508 57.6401-63.4508C50.752-63.4508 45.1999-57.4003 45.1999-50.1313C45.1999-42.3362 50.752-36.5349 57.6401-36.5003Z"/>
  </g>
  <g id="Thin-M" transform="matrix(1 0 0 1 799.828 1126)">
   <path d="M56.5885 12.6052C82.8578 12.6052 104.466-8.9913 104.466-35.2606C104.466-61.53 82.8458-83.1265 56.5765-83.1265C30.2689-83.1265 8.72266-61.53 8.72266-35.2606C8.72266-8.9913 30.2809 12.6052 56.5885 12.6052ZM56.5885 8.86824C32.2117 8.86824 12.4333-10.8718 12.4333-35.2606C12.4333-59.6495 32.1996-79.3895 56.5765-79.3895C80.9653-79.3895 100.717-59.6495 100.717-35.2606C100.717-10.8718 80.9773 8.86824 56.5885 8.86824ZM33.3639-10.1354L79.7508-10.1354C81.0142-10.1354 81.4698-10.826 81.4698-12.0533C81.4698-17.5001 73.5211-32.201 56.5765-32.201C39.6439-32.201 31.6951-17.5001 31.6951-12.0533C31.6951-10.826 32.1508-10.1354 33.3639-10.1354ZM56.5765-36.1382C63.454-36.1262 68.9609-41.9063 68.9609-49.6561C68.9609-56.8571 63.454-62.8624 56.5765-62.8624C49.711-62.8624 44.2041-56.8571 44.2041-49.6561C44.2041-41.9063 49.711-36.1502 56.5765-36.1382Z"/>
  </g>
  <g id="Ultralight-M" transform="matrix(1 0 0 1 503.679 1126)">
   <path d="M56.0321 12.0488C82.0233 12.0488 103.342-9.26949 103.342-35.2606C103.342-61.2518 82.0228-82.5701 56.0317-82.5701C29.9791-82.5701 8.72266-61.2518 8.72266-35.2606C8.72266-9.26949 29.9795 12.0488 56.0321 12.0488ZM56.0321 9.63326C31.2496 9.63326 11.0772-10.4777 11.0772-35.2606C11.0772-60.0436 31.2492-80.1545 56.0317-80.1545C80.8147-80.1545 100.926-60.0436 100.926-35.2606C100.926-10.4777 80.8151 9.63326 56.0321 9.63326ZM32.5525-10.031L79.4494-10.031C80.5158-10.031 80.8323-10.5362 80.8323-11.6013C80.8323-17.0828 72.9184-32.0271 56.0317-32.0271C39.1454-32.0271 31.2315-17.0828 31.2315-11.6013C31.2315-10.5362 31.5481-10.031 32.5525-10.031ZM56.0317-35.9527C62.8861-35.9523 68.3697-41.686 68.3697-49.4126C68.3697-56.5789 62.8861-62.561 56.0317-62.561C49.1778-62.561 43.6941-56.5789 43.6941-49.4126C43.6941-41.686 49.1778-35.9532 56.0317-35.9527Z"/>
  </g>
  <g id="Black-S" transform="matrix(1 0 0 1 2884.57 696)">
   <path d="M48.8281 6.78711C71.9727 6.78711 90.8203-12.0605 90.8203-35.2051C90.8203-58.3496 71.9727-77.1973 48.8281-77.1973C25.6836-77.1973 6.83594-58.3496 6.83594-35.2051C6.83594-12.0605 25.6836 6.78711 48.8281 6.78711ZM48.8281-7.37305C33.4473-7.37305 20.9961-19.8242 20.9961-35.2051C20.9961-50.5859 33.4473-63.0371 48.8281-63.0371C64.209-63.0371 76.6602-50.5859 76.6602-35.2051C76.6602-19.8242 64.209-7.37305 48.8281-7.37305ZM34.6191-17.3828L63.0371-17.3828C65.3809-17.3828 66.6016-19.1406 66.6016-21.1914C66.6016-25.0977 61.377-34.7656 48.8281-34.7656C36.2793-34.7656 31.0547-25.0977 31.0547-21.1914C31.0547-19.1406 32.2754-17.3828 34.6191-17.3828ZM48.8281-37.207C53.8574-37.207 57.959-41.4551 57.959-47.168C57.959-52.4902 53.8574-56.8848 48.8281-56.8848C43.7988-56.8848 39.6973-52.4902 39.6973-47.168C39.6973-41.4551 43.7988-37.207 48.8281-37.207Z"/>
  </g>
  <g id="Heavy-S" transform="matrix(1 0 0 1 2588.47 696)">
   <path d="M48.2173 6.16479C70.9816 6.16479 89.6102-12.4524 89.6102-35.2166C89.6102-57.9808 70.97-76.598 48.2058-76.598C25.4531-76.598 6.83594-57.9808 6.83594-35.2166C6.83594-12.4524 25.4646 6.16479 48.2173 6.16479ZM48.2173-6.40499C32.2833-6.40499 19.4288-19.271 19.4288-35.2166C19.4288-51.1622 32.2718-64.0282 48.2058-64.0282C64.1514-64.0282 77.0289-51.1622 77.0289-35.2166C77.0289-19.271 64.1629-6.40499 48.2173-6.40499ZM33.2708-17.0371L63.1524-17.0371C65.3348-17.0371 66.4633-18.6566 66.4633-20.5806C66.4633-24.5445 60.9736-34.4545 48.2058-34.4545C35.4495-34.4545 29.9599-24.5445 29.9599-20.5806C29.9599-18.6566 31.0884-17.0371 33.2708-17.0371ZM48.2058-37.0572C53.3388-37.0457 57.5095-41.3975 57.5095-47.2141C57.5095-52.6401 53.3388-57.1268 48.2058-57.1268C43.0843-57.1268 38.9136-52.6401 38.9136-47.2141C38.9136-41.3975 43.0843-37.0687 48.2058-37.0572Z"/>
  </g>
  <g id="Bold-S" transform="matrix(1 0 0 1 2292.43 696)">
   <path d="M47.5342 5.46875C69.873 5.46875 88.2568-12.8906 88.2568-35.2295C88.2568-57.5684 69.8486-75.9277 47.5098-75.9277C25.1953-75.9277 6.83594-57.5684 6.83594-35.2295C6.83594-12.8906 25.2197 5.46875 47.5342 5.46875ZM47.5342-5.32227C30.9814-5.32227 17.6758-18.6523 17.6758-35.2295C17.6758-51.8066 30.957-65.1367 47.5098-65.1367C64.0869-65.1367 77.4414-51.8066 77.4414-35.2295C77.4414-18.6523 64.1113-5.32227 47.5342-5.32227ZM31.7627-16.6504L63.2812-16.6504C65.2832-16.6504 66.3086-18.1152 66.3086-19.8975C66.3086-23.9258 60.5225-34.1064 47.5098-34.1064C34.5215-34.1064 28.7354-23.9258 28.7354-19.8975C28.7354-18.1152 29.7607-16.6504 31.7627-16.6504ZM47.5098-36.8896C52.7588-36.8652 57.0068-41.333 57.0068-47.2656C57.0068-52.8076 52.7588-57.3975 47.5098-57.3975C42.2852-57.3975 38.0371-52.8076 38.0371-47.2656C38.0371-41.333 42.2852-36.9141 47.5098-36.8896Z"/>
  </g>
  <g id="Semibold-S" transform="matrix(1 0 0 1 1996.19 696)">
   <path d="M47.0632 4.98887C69.1088 4.98887 87.3237-13.1928 87.3237-35.2384C87.3237-57.284 69.0755-75.4656 47.0299-75.4656C25.0176-75.4656 6.83594-57.284 6.83594-35.2384C6.83594-13.1928 25.0509 4.98887 47.0632 4.98887ZM47.0632-4.57578C30.0839-4.57578 16.4672-18.2258 16.4672-35.2384C16.4672-52.251 30.0506-65.901 47.0299-65.901C64.0425-65.901 77.7258-52.251 77.7258-35.2384C77.7258-18.2258 64.0758-4.57578 47.0632-4.57578ZM30.7229-16.3838L63.3701-16.3838C65.2477-16.3838 66.202-17.742 66.202-19.4265C66.202-23.4992 60.2114-33.8665 47.0299-33.8665C33.8816-33.8665 27.8911-23.4992 27.8911-19.4265C27.8911-17.742 28.8454-16.3838 30.7229-16.3838ZM47.0299-36.7741C52.3589-36.7408 56.6603-41.2886 56.6603-47.3012C56.6603-52.9231 52.3589-57.5841 47.0299-57.5841C41.7342-57.5841 37.4328-52.9231 37.4328-47.3012C37.4328-41.2886 41.7342-36.8074 47.0299-36.7741Z"/>
  </g>
  <g id="Medium-S" transform="matrix(1 0 0 1 1699.83 696)">
   <path d="M46.7061 4.625C68.5293 4.625 86.6162-13.4219 86.6162-35.2451C86.6162-57.0684 68.4893-75.1152 46.666-75.1152C24.8828-75.1152 6.83594-57.0684 6.83594-35.2451C6.83594-13.4219 24.9229 4.625 46.7061 4.625ZM46.7061-4.00977C29.4033-4.00977 15.5508-17.9023 15.5508-35.2451C15.5508-52.5879 29.3633-66.4805 46.666-66.4805C64.0088-66.4805 77.9414-52.5879 77.9414-35.2451C77.9414-17.9023 64.0488-4.00977 46.7061-4.00977ZM29.9346-16.1816L63.4375-16.1816C65.2207-16.1816 66.1211-17.459 66.1211-19.0693C66.1211-23.1758 59.9756-33.6846 46.666-33.6846C33.3965-33.6846 27.251-23.1758 27.251-19.0693C27.251-17.459 28.1514-16.1816 29.9346-16.1816ZM46.666-36.6865C52.0557-36.6465 56.3975-41.2549 56.3975-47.3281C56.3975-53.0107 52.0557-57.7256 46.666-57.7256C41.3164-57.7256 36.9746-53.0107 36.9746-47.3281C36.9746-41.2549 41.3164-36.7266 46.666-36.6865Z"/>
  </g>
  <g id="Regular-S" transform="matrix(1 0 0 1 1403.58 696)">
   <path d="M46.2402 4.15039C67.7734 4.15039 85.6934-13.7207 85.6934-35.2539C85.6934-56.7871 67.7246-74.6582 46.1914-74.6582C24.707-74.6582 6.83594-56.7871 6.83594-35.2539C6.83594-13.7207 24.7559 4.15039 46.2402 4.15039ZM46.2402-3.27148C28.5156-3.27148 14.3555-17.4805 14.3555-35.2539C14.3555-53.0273 28.4668-67.2363 46.1914-67.2363C63.9648-67.2363 78.2227-53.0273 78.2227-35.2539C78.2227-17.4805 64.0137-3.27148 46.2402-3.27148ZM28.9062-15.918L63.5254-15.918C65.1855-15.918 66.0156-17.0898 66.0156-18.6035C66.0156-22.7539 59.668-33.4473 46.1914-33.4473C32.7637-33.4473 26.416-22.7539 26.416-18.6035C26.416-17.0898 27.2461-15.918 28.9062-15.918ZM46.1914-36.5723C51.6602-36.5234 56.0547-41.2109 56.0547-47.3633C56.0547-53.125 51.6602-57.9102 46.1914-57.9102C40.7715-57.9102 36.377-53.125 36.377-47.3633C36.377-41.2109 40.7715-36.6211 46.1914-36.5723Z"/>
  </g>
  <g id="Light-S" transform="matrix(1 0 0 1 1107.6 696)">
   <path d="M45.5137 3.42383C66.6836 3.42383 84.2251-14.084 84.2251-35.2539C84.2251-56.4238 66.6499-73.9316 45.48-73.9316C24.3286-73.9316 6.83594-56.4238 6.83594-35.2539C6.83594-14.084 24.3623 3.42383 45.5137 3.42383ZM45.5137-2.27247C27.2593-2.27247 12.5845-16.9658 12.5845-35.2539C12.5845-53.542 27.2256-68.2353 45.48-68.2353C63.7681-68.2353 78.4951-53.542 78.4951-35.2539C78.4951-16.9658 63.8018-2.27247 45.5137-2.27247ZM27.8467-15.7817L63.1318-15.7817C64.5347-15.7817 65.1831-16.7114 65.1831-18.0132C65.1831-22.209 58.8809-33.2202 45.48-33.2202C32.1128-33.2202 25.8106-22.209 25.8106-18.0132C25.8106-16.7114 26.459-15.7817 27.8467-15.7817ZM45.48-36.3301C50.9185-36.2964 55.2827-40.9233 55.2827-47.0454C55.2827-52.7617 50.9185-57.5166 45.48-57.5166C40.0752-57.5166 35.7109-52.7617 35.7109-47.0454C35.7109-40.9233 40.0752-36.3638 45.48-36.3301Z"/>
  </g>
  <g id="Thin-S" transform="matrix(1 0 0 1 811.863 696)">
   <path d="M44.5527 2.4629C65.2422 2.4629 82.2832-14.5644 82.2832-35.2539C82.2832-55.9434 65.2285-72.9707 44.5391-72.9707C23.8281-72.9707 6.83594-55.9434 6.83594-35.2539C6.83594-14.5644 23.8418 2.4629 44.5527 2.4629ZM44.5527-0.95119C25.5977-0.95119 10.2422-16.2852 10.2422-35.2539C10.2422-54.2226 25.584-69.5566 44.5391-69.5566C63.5078-69.5566 78.8555-54.2226 78.8555-35.2539C78.8555-16.2852 63.5215-0.95119 44.5527-0.95119ZM26.4453-15.6016L62.6113-15.6016C63.6738-15.6016 64.082-16.2109 64.082-17.2324C64.082-21.4883 57.8399-32.9199 44.5391-32.9199C31.252-32.9199 25.0098-21.4883 25.0098-17.2324C25.0098-16.2109 25.418-15.6016 26.4453-15.6016ZM44.5391-36.0098C49.9375-35.9961 54.2617-40.543 54.2617-46.625C54.2617-52.2813 49.9375-56.9961 44.5391-56.9961C39.1543-56.9961 34.8301-52.2813 34.8301-46.625C34.8301-40.543 39.1543-36.0234 44.5391-36.0098Z"/>
  </g>
  <g id="Ultralight-S" transform="matrix(1 0 0 1 515.649 696)">
   <path d="M44.0606 1.97072C64.5039 1.97072 81.2886-14.8105 81.2886-35.2539C81.2886-55.6973 64.5005-72.4785 44.0571-72.4785C23.5718-72.4785 6.83594-55.6973 6.83594-35.2539C6.83594-14.8105 23.5752 1.97072 44.0606 1.97072ZM44.0606-0.274438C24.7466-0.274438 9.04252-15.9365 9.04252-35.2539C9.04252-54.5713 24.7432-70.2334 44.0571-70.2334C63.3745-70.2334 79.04-54.5713 79.04-35.2539C79.04-15.9365 63.3779-0.274438 44.0606-0.274438ZM25.7276-15.5093L62.3447-15.5093C63.2329-15.5093 63.5181-15.9546 63.5181-16.8325C63.5181-21.1192 57.3067-32.7661 44.0571-32.7661C30.8111-32.7661 24.5996-21.1192 24.5996-16.8325C24.5996-15.9546 24.8848-15.5093 25.7276-15.5093ZM44.0571-35.8457C49.4351-35.8423 53.7388-40.3482 53.7388-46.4097C53.7388-52.0352 49.4351-56.7295 44.0571-56.7295C38.6826-56.7295 34.3789-52.0352 34.3789-46.4097C34.3789-40.3482 38.6826-35.8491 44.0571-35.8457Z"/>
  </g>
 </g>
</svg>
